<svg xmlns="http://www.w3.org/2000/svg" version="1.1" xmlns:xlink="http://www.w3.org/1999/xlink" xmlns:svgjs="http://svgjs.dev/svgjs" width="2000" height="1500" viewBox="0 0 2000 1500"><rect width="2000" height="1500" fill="#8e3fff"></rect><g transform="matrix(0.75,0,0,0.75,249.090909090909,558.1310028703396)"><svg viewBox="0 0 396 101" data-background-color="#8e3fff" preserveAspectRatio="xMidYMid meet" height="510" width="2000" xmlns="http://www.w3.org/2000/svg" xmlns:xlink="http://www.w3.org/1999/xlink"><g id="tight-bounds" transform="matrix(1,0,0,1,0.2400000000000091,0.16344760809334957)"><svg viewBox="0 0 395.52 100.6731047838133" height="100.6731047838133" width="395.52"><g><svg viewBox="0 0 663.2746815657824 168.82565108647455" height="100.6731047838133" width="395.52"><g transform="matrix(1,0,0,1,267.7546815657824,35.01491646780734)"><svg viewBox="0 0 395.52000000000004 98.79581815085987" height="98.79581815085987" width="395.52000000000004"><g id="textblocktransform"><svg viewBox="0 0 395.52000000000004 98.79581815085987" height="98.79581815085987" width="395.52000000000004" id="textblock"><g><svg viewBox="0 0 395.52000000000004 98.79581815085987" height="98.79581815085987" width="395.52000000000004"><g transform="matrix(1,0,0,1,0,0)"><svg width="395.52000000000004" viewBox="2.25 -35.23 143.36 35.82" height="98.79581815085987" data-palette-color="#ffffff"><path d="M11.65-25.95L11.65-25.95Q13.65-25.95 15.66-25.54 17.68-25.12 19.41-24.39L19.41-24.39Q19.07-23.61 18.7-22.85 18.33-22.09 17.9-21.36L17.9-21.36Q17.29-21.61 16.54-21.85 15.8-22.09 14.98-22.27 14.16-22.44 13.29-22.55 12.43-22.66 11.6-22.66L11.6-22.66Q10.69-22.66 9.85-22.47 9.01-22.29 8.36-21.88 7.71-21.46 7.32-20.79 6.93-20.12 6.93-19.12L6.93-19.12Q6.93-18.09 7.37-17.4 7.81-16.7 8.57-16.24 9.33-15.77 10.34-15.45 11.35-15.14 12.5-14.87L12.5-14.87Q14.28-14.43 15.82-13.88 17.36-13.33 18.48-12.45 19.6-11.57 20.24-10.28 20.87-8.98 20.87-7.08L20.87-7.08Q20.87-5.08 20.08-3.64 19.29-2.2 17.93-1.26 16.58-0.32 14.77 0.13 12.96 0.59 10.91 0.59L10.91 0.59Q9.84 0.59 8.7 0.45 7.57 0.32 6.46 0.06 5.35-0.2 4.27-0.56 3.2-0.93 2.25-1.37L2.25-1.37Q2.59-2.15 2.97-2.89 3.34-3.64 3.76-4.37L3.76-4.37Q4.57-4.03 5.47-3.72 6.37-3.42 7.32-3.2 8.28-2.98 9.2-2.84 10.13-2.71 10.99-2.71L10.99-2.71Q12.06-2.71 13.07-2.95 14.09-3.2 14.88-3.72 15.67-4.25 16.15-5.08 16.63-5.91 16.63-7.08L16.63-7.08Q16.63-8.18 16.17-8.89 15.72-9.59 14.97-10.07 14.21-10.55 13.2-10.85 12.18-11.16 11.06-11.43L11.06-11.43Q9.35-11.84 7.82-12.38 6.3-12.92 5.16-13.78 4.03-14.65 3.36-15.93 2.69-17.21 2.69-19.12L2.69-19.12Q2.69-20.9 3.42-22.19 4.15-23.49 5.38-24.32 6.62-25.15 8.24-25.55 9.86-25.95 11.65-25.95ZM45.19-4.71L46.41-1.42Q43.7-0.34 41.32 0.12 38.94 0.59 37.06 0.59L37.06 0.59Q34.18 0.59 32.03-0.33 29.88-1.25 28.45-2.91 27.02-4.57 26.3-6.87 25.58-9.18 25.58-11.96L25.58-11.96Q25.58-13.67 25.83-15.38 26.07-17.09 26.61-18.64 27.15-20.19 28.01-21.53 28.88-22.88 30.12-23.85 31.37-24.83 33.03-25.39 34.69-25.95 36.81-25.95L36.81-25.95Q42.26-25.95 45.02-22.55 47.78-19.14 47.78-12.79L47.78-12.79 47.78-11.45 29.9-11.45Q29.9-9.4 30.34-7.82 30.78-6.25 31.7-5.16 32.61-4.08 34.02-3.52 35.42-2.95 37.35-2.95L37.35-2.95Q38.43-2.95 39.49-3.11 40.55-3.27 41.55-3.53 42.55-3.78 43.47-4.1 44.38-4.42 45.19-4.71L45.19-4.71ZM30.03-14.82L43.55-14.82Q43.36-18.77 41.66-20.59 39.96-22.41 36.81-22.41L36.81-22.41Q33.66-22.41 32.02-20.59 30.37-18.77 30.03-14.82L30.03-14.82ZM58.66-19.51L58.88-19.51Q59.64-21.02 60.51-22.24 61.37-23.46 62.42-24.32L62.42-24.32Q63.37-25.15 64.52-25.55 65.67-25.95 67.13-25.95L67.13-25.95Q67.62-25.95 68.27-25.9 68.92-25.85 69.5-25.73L69.5-25.73Q69.4-24.51 69.27-23.44 69.14-22.36 68.92-21.26L68.92-21.26Q67.7-21.48 66.68-21.58 65.67-21.68 64.77-21.53L64.77-21.53Q63.69-21.34 62.9-20.81 62.1-20.29 61.43-19.42 60.76-18.55 60.13-17.35 59.49-16.14 58.74-14.58L58.74-14.58 58.74 0 54.54 0 54.54-15.65Q54.54-17.19 54.5-18.36 54.46-19.53 54.35-20.59 54.24-21.66 54.02-22.69 53.8-23.73 53.44-25L53.44-25Q54.46-25.27 55.45-25.49 56.44-25.71 57.47-25.9L57.47-25.9Q57.81-24.93 58.02-24.17 58.22-23.41 58.34-22.69 58.47-21.97 58.53-21.23 58.59-20.48 58.66-19.51L58.66-19.51ZM89.74-25.39L94.28-25.39 85.83 0 80.22 0 71.77-25.39 76.31-25.39 83.02-3.22 89.74-25.39ZM103.12-35.11L103.12-9.86Q103.12-7.86 103.16-6.51 103.21-5.15 103.29-4.13L103.29-4.13Q103.36-3.1 103.52-2.27 103.68-1.44 103.92-0.44L103.92-0.44Q102.9-0.17 101.87 0.06 100.84 0.29 99.82 0.46L99.82 0.46Q99.33-1.12 99.12-2.44 98.92-3.76 98.92-5.03L98.92-5.03 98.92-35.11 103.12-35.11ZM113.66-35.23L113.66-35.23Q114.78-35.23 115.61-34.45L115.61-34.45Q116.42-33.59 116.42-32.45L116.42-32.45Q116.42-31.27 115.61-30.47L115.61-30.47Q114.78-29.64 113.66-29.64L113.66-29.64Q112.49-29.64 111.66-30.47L111.66-30.47Q110.83-31.25 110.83-32.45L110.83-32.45Q110.83-33.62 111.66-34.45L111.66-34.45Q112.49-35.23 113.66-35.23ZM111.51 0L111.51-25.39 115.71-25.39 115.71 0 111.51 0ZM131.6-12.4L122.84-23.54 125.94-25.95 133.94-15.77 140.78-25.39 145.61-25.39 136.41-12.62 144.93-1.83 141.86 0.59 134.09-9.28 127.48-0.02 122.62-0.02 131.6-12.4Z" opacity="1" transform="matrix(1,0,0,1,0,0)" fill="#ffffff" class="wordmark-text-0" data-fill-palette-color="primary" id="text-0"></path></svg></g></svg></g></svg></g></svg></g><g><svg viewBox="0 0 244.43136 168.82565108647455" height="168.82565108647455" width="244.43136"><g><svg xmlns="http://www.w3.org/2000/svg" xmlns:xlink="http://www.w3.org/1999/xlink" version="1.1" x="0" y="0" viewBox="4.800000000000001 18.9 90.2 62.30000000000002" enable-background="new 0 0 100 100" xml:space="preserve" height="168.82565108647455" width="244.43136" class="icon-icon-0" data-fill-palette-color="accent" id="icon-0"><path d="M19.6 35.9c0 6.4 5.2 11.6 11.6 11.6 6.4 0 11.6-5.2 11.6-11.6 0-6.4-5.2-11.6-11.6-11.6C24.8 24.3 19.6 29.5 19.6 35.9zM36.6 35.9c0 3-2.4 5.4-5.4 5.4-3 0-5.4-2.4-5.4-5.4 0-3 2.4-5.4 5.4-5.4C34.2 30.5 36.6 32.9 36.6 35.9zM58.7 28.7c0 5.4 4.4 9.8 9.8 9.8 5.4 0 9.8-4.4 9.8-9.8 0-5.4-4.4-9.8-9.8-9.8C63.1 18.9 58.7 23.3 58.7 28.7zM72.1 28.7c0 2-1.6 3.6-3.6 3.6s-3.6-1.6-3.6-3.6 1.6-3.6 3.6-3.6S72.1 26.7 72.1 28.7zM92.1 58.2h-7.3c-2.3-15.7-11.1-18.1-16.3-18.1s-13.9 2.4-16.3 18.1h-5.9c-4.2-7.1-10-9-15.1-9s-11 1.9-15.1 9H7.9c-1.7 0-3.1 1.4-3.1 3.1s1.4 3.1 3.1 3.1h5.4c-1.2 3.6-2 8-2.5 13.3-0.1 1.7 1.1 3.2 2.8 3.4 1.7 0.2 3.2-1.1 3.4-2.8 1.3-15.2 6-22.9 14.1-22.9 8.1 0 12.9 7.7 14.1 22.9 0.1 1.6 1.5 2.9 3.1 2.9 0.1 0 0.2 0 0.3 0 1.7-0.1 3-1.6 2.8-3.4-0.4-5.4-1.3-9.7-2.5-13.3h43c1.7 0 3.1-1.4 3.1-3.1S93.8 58.2 92.1 58.2zM58.5 58.2c1.4-7.9 4.7-11.9 10-11.9 5.3 0 8.6 4 10 11.9H58.5z" fill="#ffffff" data-fill-palette-color="accent"></path></svg></g></svg></g></svg></g><defs></defs></svg><rect width="395.52" height="100.6731047838133" fill="none" stroke="none" visibility="hidden"></rect></g></svg></g></svg>